<?xml version="1.0" encoding="UTF-8"?><svg id="Layer_1" xmlns="http://www.w3.org/2000/svg" viewBox="0 0 233.14 158.99"><defs><style>.cls-1,.cls-2,.cls-3,.cls-4,.cls-5,.cls-6,.cls-7,.cls-8,.cls-9,.cls-10,.cls-11{fill:none;}.cls-1,.cls-2,.cls-3,.cls-4,.cls-5,.cls-6,.cls-7,.cls-9,.cls-10,.cls-11{stroke-width:4.72px;}.cls-1,.cls-2,.cls-4,.cls-7,.cls-11{stroke-miterlimit:10;}.cls-1,.cls-6{stroke:#1d1d1b;}.cls-12{fill:#fff;}.cls-2,.cls-3{stroke:#c86191;}.cls-3,.cls-5,.cls-6,.cls-9,.cls-10{stroke-linecap:round;stroke-linejoin:round;}.cls-4{stroke:#63b98e;}.cls-5,.cls-11{stroke:#008d66;}.cls-7,.cls-9{stroke:#63ba8f;}.cls-10{stroke:#fff;}.cls-13{fill:#c86191;}</style></defs><rect class="cls-8" width="233.14" height="158.99"/><g><g><path class="cls-1" d="M216.33,39.67V116.62c0,6.01-4.87,10.88-10.88,10.88h-76.95c-9.7,0-14.55-11.72-7.7-18.58L197.75,31.97c6.86-6.86,18.58-2,18.58,7.7Z"/><line class="cls-10" x1="192.33" y1="149.74" x2="192.33" y2="109.74"/><path class="cls-11" d="M216.33,52.85v63.77c0,6.01-4.87,10.88-10.88,10.88h-54.98"/><path class="cls-4" d="M150.47,127.5h-21.97c-9.7,0-14.55-11.72-7.7-18.58l4.45-4.45"/><path class="cls-4" d="M150.47,109.74v21.12c0,6.01-4.87,10.88-10.88,10.88H47.24c-6.01,0-10.88-4.87-10.88-10.88v-39.04"/><path class="cls-7" d="M100.55,27.63h39.04c6.01,0,10.88,4.87,10.88,10.88v7.23"/><line class="cls-6" x1="56.33" y1="44.41" x2="56.33" y2="85.74"/><path class="cls-1" d="M103.86,24.32L26.91,101.27c-6.86,6.86-18.58,2-18.58-7.7V16.62c0-6.01,4.87-10.88,10.88-10.88H96.17c9.7,0,14.55,11.72,7.7,18.58Z"/><path class="cls-2" d="M36.36,91.82V38.51c0-6.01,4.87-10.88,10.88-10.88h53.3"/><polyline class="cls-5" points="105.85 45.74 137.85 13.74 153.85 13.74"/><g><path class="cls-11" d="M34.44,93.74l-7.53,7.53c-6.86,6.86-18.58,2-18.58-7.7V16.62c0-6.01,4.87-10.88,10.88-10.88H96.17c9.7,0,14.55,11.72,7.7,18.58L34.44,93.74"/><polyline class="cls-9" points="8.33 109.74 8.33 141.74 24.33 141.74"/><line class="cls-3" x1="150.47" y1="77.74" x2="150.47" y2="109.74"/><line class="cls-9" x1="150.47" y1="45.74" x2="150.47" y2="77.74"/><path class="cls-3" d="M200.52,29.94c6.84-3.53,15.81,1.25,15.81,9.73v13.18"/><line class="cls-5" x1="72.33" y1="69.74" x2="72.33" y2="111.07"/><line class="cls-9" x1="104.33" y1="101.74" x2="88.33" y2="101.74"/><polyline class="cls-3" points="56.33 105.07 56.33 125.74 76.66 125.74"/><line class="cls-3" x1="96.33" y1="71.43" x2="96.33" y2="61.74"/><line class="cls-3" x1="200.33" y1="87.43" x2="200.33" y2="77.74"/><line class="cls-5" x1="98.67" y1="45.74" x2="113.02" y2="45.74"/><line class="cls-5" x1="104.33" y1="117.74" x2="104.33" y2="152.73"/><line class="cls-5" x1="80.33" y1="33.55" x2="80.33" y2="21.71"/><line class="cls-9" x1="24.33" y1="69.74" x2="24.33" y2="57.89"/></g><polyline class="cls-3" points="208.33 149.74 224.33 149.74 224.33 133.74"/><polyline class="cls-9" points="208.33 5.74 224.33 5.74 224.33 13.74"/><line class="cls-6" x1="192.33" y1="109.74" x2="224.33" y2="109.74"/><line class="cls-5" x1="72.33" y1="93.74" x2="88.33" y2="77.74"/></g><g><circle class="cls-13" cx="164.55" cy="65.07" r="27.79"/><path class="cls-12" d="M164.55,41.11c13.24,0,23.97,10.73,23.97,23.97s-10.73,23.97-23.97,23.97-23.97-10.73-23.97-23.97,10.73-23.97,23.97-23.97m0-7.64c-17.43,0-31.6,14.18-31.6,31.6s14.18,31.6,31.6,31.6,31.6-14.18,31.6-31.6-14.18-31.6-31.6-31.6h0Z"/></g><polyline class="cls-6" points="200.33 13.74 200.33 53.74 224.33 53.74"/><line class="cls-6" x1="160.4" y1="69.22" x2="168.71" y2="60.92"/></g></svg>