<?xml version="1.0" encoding="UTF-8"?><svg id="Layer_1" xmlns="http://www.w3.org/2000/svg" viewBox="0 0 233.14 158.99"><defs><style>.cls-1,.cls-2,.cls-3,.cls-4,.cls-5,.cls-6,.cls-7,.cls-8{stroke-width:4.72px;}.cls-1,.cls-4,.cls-5{stroke-miterlimit:10;}.cls-1,.cls-5{fill:#fff;}.cls-1,.cls-6{stroke:#63ba8f;}.cls-2,.cls-3,.cls-9,.cls-6,.cls-7,.cls-8{fill:none;}.cls-2,.cls-3,.cls-6,.cls-7,.cls-8{stroke-linecap:round;stroke-linejoin:round;}.cls-2,.cls-4{stroke:#c86191;}.cls-3{stroke:#1d1d1b;}.cls-4{fill:#c86191;}.cls-10{fill:#63ba8f;}.cls-5{stroke:#008d66;}.cls-7{stroke:#fff;}.cls-8{stroke:silver;}.cls-11{fill:#1d1d1b;}</style></defs><rect class="cls-9" width="233.14" height="158.99"/><g><path class="cls-1" d="M184.85,128.88H107.9c-6.01,0-10.88-4.87-10.88-10.88V41.04c0-9.7,11.72-14.55,18.58-7.7l76.95,76.95c6.86,6.86,2,18.58-7.7,18.58Z"/><path class="cls-5" d="M123.42,48.71L46.47,125.67c-6.86,6.86-18.58,2-18.58-7.7V41.02c0-6.01,4.87-10.88,10.88-10.88H115.73c9.7,0,14.55,11.72,7.7,18.58Z"/><rect class="cls-4" x="53.03" y="22.45" width="114.11" height="114.11" rx="10.88" ry="10.88" transform="translate(131.71 213.57) rotate(-135)"/><g><path class="cls-10" d="M110.08,112.04c-17.79,0-32.26-14.47-32.26-32.26s14.47-32.26,32.26-32.26,32.26,14.47,32.26,32.26-14.47,32.26-32.26,32.26Z"/><path class="cls-11" d="M110.08,51.34c15.71,0,28.44,12.73,28.44,28.44s-12.73,28.44-28.44,28.44-28.44-12.73-28.44-28.44,12.73-28.44,28.44-28.44m0-7.64c-19.9,0-36.08,16.19-36.08,36.08s16.19,36.08,36.08,36.08,36.08-16.19,36.08-36.08-16.19-36.08-36.08-36.08h0Z"/></g><polyline class="cls-7" points="33.85 56.88 65.85 56.88 65.85 87.51"/><polyline class="cls-8" points="93.78 25.17 93.78 36.49 11.11 36.49"/><line class="cls-2" x1="79.85" y1="113.42" x2="8.33" y2="113.42"/><line class="cls-6" x1="17.85" y1="87.51" x2="88.33" y2="87.51"/><polyline class="cls-8" points="8.63 99.57 31.25 99.57 36.91 105.23"/><polyline class="cls-3" points="126.82 119.51 136.33 119.51 136.33 151.23"/><line class="cls-6" x1="111.85" y1="21.47" x2="111.85" y2="12.16"/><line class="cls-2" x1="125.09" y1="36.28" x2="186.16" y2="36.28"/><polyline class="cls-2" points="26.92 19.13 49.55 19.13 56.56 12.17"/><polyline class="cls-2" points="158.19 63.51 158.19 55.51 217.85 55.51"/><polyline class="cls-7" points="110.08 90.28 110.08 79.51 158.19 79.51"/><line class="cls-6" x1="138.53" y1="79.51" x2="217.85" y2="79.51"/><line class="cls-2" x1="175.81" y1="94.46" x2="218.63" y2="94.46"/><line class="cls-3" x1="151.81" y1="86.46" x2="151.81" y2="102.46"/><line class="cls-3" x1="169.3" y1="94.46" x2="151.81" y2="94.46"/><line class="cls-6" x1="151.33" y1="21.47" x2="103.85" y2="21.47"/><line class="cls-6" x1="185.22" y1="28.18" x2="185.22" y2="12.16"/><line class="cls-6" x1="193.22" y1="28.18" x2="177.22" y2="28.18"/><polyline class="cls-8" points="193.22 143.54 193.22 45.38 141.64 45.38"/><polyline class="cls-3" points="52.44 143.54 68.45 143.54 88.33 121.91 71.36 104.94"/><line class="cls-3" x1="99.71" y1="130.47" x2="117.87" y2="130.47"/><line class="cls-3" x1="108.79" y1="150.3" x2="108.79" y2="130.47"/></g></svg>