<?xml version="1.0" encoding="UTF-8"?><svg id="Layer_1" xmlns="http://www.w3.org/2000/svg" viewBox="0 0 233.14 158.99"><defs><style>.cls-1{fill:#008d66;}.cls-1,.cls-2,.cls-3,.cls-4,.cls-5,.cls-6,.cls-7,.cls-8,.cls-9{stroke-width:4.72px;}.cls-1,.cls-4,.cls-6,.cls-8{stroke:#1d1d1b;}.cls-1,.cls-6,.cls-8{stroke-miterlimit:10;}.cls-2{stroke:#c86191;}.cls-2,.cls-3,.cls-4,.cls-10,.cls-5,.cls-7,.cls-9{fill:none;}.cls-2,.cls-3,.cls-4,.cls-5,.cls-7,.cls-9{stroke-linecap:round;stroke-linejoin:round;}.cls-3{stroke:#008d66;}.cls-5{stroke:#63ba8f;}.cls-6{fill:#fff;}.cls-7{stroke:#fff;}.cls-8{fill:#63ba8f;}.cls-11{fill:#c86191;}.cls-9{stroke:silver;}</style></defs><rect class="cls-10" width="233.14" height="158.99"/><g><rect class="cls-6" x="60.57" y="22.5" width="114.11" height="114.11" rx="10.88" ry="10.88" transform="translate(38.07 197.17) rotate(-90)"/><g><line class="cls-3" x1="109.06" y1="101.94" x2="63.21" y2="147.13"/><line class="cls-5" x1="163.47" y1="28.52" x2="117.62" y2="73.7"/><line class="cls-5" x1="75.65" y1="118.04" x2="121.5" y2="72.85"/></g><circle class="cls-11" cx="117.62" cy="79.55" r="28.44"/><line class="cls-2" x1="168.89" y1="7.61" x2="117.71" y2="58.13"/><line class="cls-2" x1="47.81" y1="144.1" x2="40.03" y2="151.88"/><line class="cls-4" x1="47.81" y1="127.24" x2="23.72" y2="151.33"/><line class="cls-2" x1="183.94" y1="15.76" x2="191.81" y2="7.88"/><line class="cls-3" x1="184.31" y1="31.7" x2="199.88" y2="16.13"/><path class="cls-1" d="M219.18,48.71V125.66c0,6.01-4.87,10.88-10.88,10.88h-76.95c-9.7,0-14.55-11.72-7.7-18.58L200.61,41.02c6.86-6.86,18.58-2,18.58,7.7Z"/><g><line class="cls-4" x1="223.26" y1="143.23" x2="171.51" y2="90.82"/><line class="cls-9" x1="173.53" y1="116.79" x2="157.44" y2="100.42"/><line class="cls-9" x1="206.37" y1="94.34" x2="186.95" y2="74.63"/></g><path class="cls-8" d="M112.04,41.02L35.09,117.97c-6.86,6.86-18.58,2-18.58-7.7V33.32c0-6.01,4.87-10.88,10.88-10.88H104.35c9.7,0,14.55,11.72,7.7,18.58Z"/><line class="cls-2" x1="39.32" y1="95.21" x2="76.74" y2="95.68"/><line class="cls-9" x1="68.88" y1="36.27" x2="84.6" y2="52.65"/><line class="cls-3" x1="40.68" y1="52.34" x2="66.18" y2="78.51"/><line class="cls-2" x1="128.2" y1="95.59" x2="174.4" y2="142.45"/><line class="cls-4" x1="39.66" y1="34.58" x2="82.29" y2="77.5"/><line class="cls-2" x1="157.62" y1="53.38" x2="129.98" y2="80.36"/><line class="cls-7" x1="117.62" y1="79.55" x2="29.85" y2="79.55"/></g></svg>