<?xml version="1.0" encoding="UTF-8"?><svg id="Layer_1" xmlns="http://www.w3.org/2000/svg" viewBox="0 0 233.14 158.99"><defs><style>.cls-1{fill:#f2a74b;}.cls-1,.cls-2,.cls-3,.cls-4{stroke:#f2a74b;}.cls-1,.cls-2,.cls-3,.cls-4,.cls-5{stroke-miterlimit:10;}.cls-1,.cls-2,.cls-4{stroke-width:4.76px;}.cls-1,.cls-2,.cls-4,.cls-6{stroke-linecap:round;}.cls-2,.cls-3,.cls-5{fill:#fff;}.cls-3,.cls-6{stroke-width:7.71px;}.cls-4,.cls-7,.cls-6{fill:none;}.cls-5{stroke-width:4.71px;}.cls-5,.cls-6{stroke:#1d1d1b;}.cls-6{stroke-linejoin:round;}</style></defs><rect class="cls-7" y="-1.02" width="235.3" height="160.46"/><g><path class="cls-5" d="M103.33,29.13L25.66,106.79c-6.92,6.92-18.75,2.02-18.75-7.77V21.36c0-6.07,4.92-10.98,10.98-10.98H95.56c9.79,0,14.69,11.83,7.77,18.75Z"/><rect class="cls-3" x="56.8" y="23.06" width="115.17" height="115.17" rx="10.98" ry="10.98" transform="translate(33.74 195.03) rotate(-90)"/><circle class="cls-1" cx="105.01" cy="69.18" r="8.24"/><circle class="cls-2" cx="125.01" cy="89.18" r="8.24"/><g><line class="cls-6" x1="115.01" y1="112.67" x2="115.01" y2="48.62"/><line class="cls-6" x1="147.03" y1="79.21" x2="81.74" y2="79.21"/><line class="cls-6" x1="91.07" y1="103.14" x2="137.51" y2="56.71"/></g><path class="cls-5" d="M228.39,59.63v77.67c0,6.07-4.92,10.98-10.98,10.98h-77.67c-9.79,0-14.69-11.83-7.77-18.75L209.64,51.86c6.92-6.92,18.75-2.02,18.75,7.77Z"/><circle class="cls-2" cx="115.01" cy="48.62" r="8.24"/><circle class="cls-2" cx="82.36" cy="79.8" r="8.24"/><circle class="cls-1" cx="91.74" cy="103.29" r="8.24"/><circle class="cls-1" cx="115.01" cy="112.67" r="8.24"/><circle class="cls-2" cx="146.41" cy="79.8" r="8.24"/><circle class="cls-1" cx="137.36" cy="56.86" r="8.24"/><line class="cls-4" x1="155.84" y1="38.35" x2="168.02" y2="26.16"/><line class="cls-4" x1="135.45" y1="40.38" x2="143.58" y2="32.25"/><line class="cls-4" x1="152.87" y1="58.33" x2="162.65" y2="48.56"/><line class="cls-4" x1="59.62" y1="134.57" x2="73.28" y2="120.9"/><line class="cls-4" x1="87.34" y1="126.79" x2="93.83" y2="120.31"/><line class="cls-4" x1="65.7" y1="106.96" x2="75.24" y2="97.42"/></g></svg>