<?xml version="1.0" encoding="UTF-8"?><svg id="Layer_1" xmlns="http://www.w3.org/2000/svg" viewBox="0 0 595.28 841.89"><defs><style>.cls-1{fill:#f2a74b;}.cls-1,.cls-2,.cls-3,.cls-4,.cls-5,.cls-6,.cls-7,.cls-8,.cls-9,.cls-10,.cls-11,.cls-12,.cls-13{stroke-linecap:round;}.cls-1,.cls-14,.cls-15,.cls-3,.cls-16,.cls-17,.cls-18,.cls-5,.cls-7,.cls-19,.cls-20,.cls-21,.cls-22,.cls-23,.cls-24,.cls-25,.cls-26,.cls-27,.cls-28,.cls-29,.cls-10,.cls-30,.cls-31,.cls-32,.cls-33,.cls-34,.cls-35{stroke-miterlimit:10;}.cls-1,.cls-3,.cls-5{stroke-width:3.17px;}.cls-1,.cls-3,.cls-5,.cls-30{stroke:#f2a74b;}.cls-2,.cls-15,.cls-16,.cls-4,.cls-5,.cls-6,.cls-7,.cls-8,.cls-22,.cls-36,.cls-26,.cls-27,.cls-9,.cls-28,.cls-10,.cls-37,.cls-32,.cls-11,.cls-33,.cls-12,.cls-13{fill:none;}.cls-2,.cls-4,.cls-17,.cls-6,.cls-8,.cls-21,.cls-22,.cls-23,.cls-26,.cls-27,.cls-9,.cls-28,.cls-29,.cls-31,.cls-11,.cls-33,.cls-34{stroke-width:2.93px;}.cls-2,.cls-4,.cls-6,.cls-38,.cls-8,.cls-36,.cls-9,.cls-11,.cls-12,.cls-13{stroke-linejoin:round;}.cls-2,.cls-28,.cls-29{stroke:#008d66;}.cls-14,.cls-3,.cls-39,.cls-17,.cls-18,.cls-38,.cls-20,.cls-24,.cls-29,.cls-30,.cls-31,.cls-35{fill:#fff;}.cls-14,.cls-38,.cls-24,.cls-36,.cls-13,.cls-35{stroke-width:5.08px;}.cls-14,.cls-10{stroke:#5207f2;}.cls-15{stroke-width:.37px;}.cls-15,.cls-16,.cls-18,.cls-38,.cls-19,.cls-20,.cls-21,.cls-22,.cls-36,.cls-25,.cls-9,.cls-31,.cls-34,.cls-12,.cls-13{stroke:#1d1d1b;}.cls-40{font-family:ProximaNova-Regular, 'Proxima Nova';font-size:30.84px;}.cls-40,.cls-41{fill:#1d1d1b;}.cls-42{fill:#1c1c19;}.cls-16,.cls-18{stroke-width:3.18px;}.cls-4{stroke:silver;}.cls-17,.cls-6,.cls-27{stroke:#63ba8f;}.cls-43{fill:#5207f2;}.cls-7,.cls-24{stroke:#f96e05;}.cls-7,.cls-10,.cls-32{stroke-width:3.14px;}.cls-19,.cls-20,.cls-25{stroke-width:2.56px;}.cls-19,.cls-21{fill:#008d66;}.cls-8,.cls-23,.cls-26{stroke:#c86191;}.cls-23,.cls-44{fill:#c86191;}.cls-25,.cls-45,.cls-34{fill:#63ba8f;}.cls-30,.cls-12{stroke-width:5.12px;}.cls-32,.cls-35{stroke:#27a4f2;}.cls-11{stroke:#fff;}.cls-33{stroke:#63b98e;}</style></defs><g><g><rect class="cls-37" x="401.92" y="60.09" width="144.75" height="98.71"/><g><rect class="cls-31" x="439.52" y="74.06" width="70.85" height="70.85" rx="6.76" ry="6.76" transform="translate(365.47 584.43) rotate(-90)"/><g><line class="cls-2" x1="469.63" y1="123.38" x2="441.17" y2="151.44"/><line class="cls-6" x1="503.42" y1="77.79" x2="474.95" y2="105.85"/><line class="cls-6" x1="448.89" y1="133.38" x2="477.35" y2="105.32"/></g><circle class="cls-44" cx="474.95" cy="109.48" r="17.66"/><line class="cls-8" x1="506.78" y1="64.81" x2="475" y2="96.18"/><line class="cls-8" x1="431.61" y1="149.56" x2="426.77" y2="154.39"/><line class="cls-9" x1="431.61" y1="139.09" x2="416.65" y2="154.05"/><line class="cls-8" x1="516.12" y1="69.87" x2="521.01" y2="64.98"/><line class="cls-2" x1="516.35" y1="79.77" x2="526.02" y2="70.1"/><path class="cls-21" d="M538.01,90.33v47.78c0,3.73-3.03,6.76-6.76,6.76h-47.78c-6.02,0-9.03-7.28-4.78-11.53l47.78-47.78c4.26-4.26,11.53-1.24,11.53,4.78Z"/><g><line class="cls-9" x1="540.54" y1="149.02" x2="508.41" y2="116.48"/><line class="cls-4" x1="509.66" y1="132.6" x2="499.67" y2="122.44"/><line class="cls-4" x1="530.05" y1="118.66" x2="517.99" y2="106.42"/></g><path class="cls-34" d="M471.48,85.55l-47.78,47.78c-4.26,4.26-11.53,1.24-11.53-4.78v-47.78c0-3.73,3.03-6.76,6.76-6.76h47.78c6.02,0,9.03,7.28,4.78,11.53Z"/><line class="cls-8" x1="426.33" y1="119.2" x2="449.56" y2="119.5"/><line class="cls-4" x1="444.69" y1="82.61" x2="454.44" y2="92.78"/><line class="cls-2" x1="427.18" y1="92.59" x2="443.01" y2="108.84"/><line class="cls-8" x1="481.52" y1="119.44" x2="510.2" y2="148.53"/><line class="cls-9" x1="426.54" y1="81.56" x2="453.01" y2="108.21"/><line class="cls-8" x1="499.78" y1="93.23" x2="482.62" y2="109.98"/><line class="cls-11" x1="474.95" y1="109.48" x2="420.45" y2="109.48"/></g></g><g><rect class="cls-37" x="225.26" y="60.09" width="144.75" height="98.71"/><g><path class="cls-17" d="M340.03,140.11h-47.78c-3.73,0-6.76-3.03-6.76-6.76v-47.78c0-6.02,7.28-9.03,11.53-4.78l47.78,47.78c4.26,4.26,1.24,11.53-4.78,11.53Z"/><path class="cls-29" d="M301.89,90.33l-47.78,47.78c-4.26,4.26-11.53,1.24-11.53-4.78v-47.78c0-3.73,3.03-6.76,6.76-6.76h47.78c6.02,0,9.03,7.28,4.78,11.53Z"/><rect class="cls-23" x="258.19" y="74.03" width="70.85" height="70.85" rx="6.76" ry="6.76" transform="translate(423.83 394.46) rotate(-135)"/><g><path class="cls-45" d="M293.61,129.65c-11.04,0-20.03-8.99-20.03-20.03s8.99-20.03,20.03-20.03,20.03,8.99,20.03,20.03-8.99,20.03-20.03,20.03Z"/><path class="cls-41" d="M293.61,91.96c9.75,0,17.66,7.91,17.66,17.66s-7.91,17.66-17.66,17.66-17.66-7.91-17.66-17.66,7.91-17.66,17.66-17.66m0-4.74c-12.35,0-22.4,10.05-22.4,22.4s10.05,22.4,22.4,22.4,22.4-10.05,22.4-22.4-10.05-22.4-22.4-22.4h0Z"/></g><polyline class="cls-11" points="246.28 95.4 266.15 95.4 266.15 114.42"/><polyline class="cls-4" points="283.49 75.72 283.49 82.74 232.16 82.74"/><line class="cls-8" x1="274.84" y1="130.51" x2="230.43" y2="130.51"/><line class="cls-6" x1="236.34" y1="114.42" x2="280.11" y2="114.42"/><polyline class="cls-4" points="230.62 121.91 244.67 121.91 248.18 125.42"/><polyline class="cls-9" points="304 134.29 309.91 134.29 309.91 153.98"/><line class="cls-6" x1="294.71" y1="73.42" x2="294.71" y2="67.64"/><line class="cls-8" x1="302.93" y1="82.61" x2="340.85" y2="82.61"/><polyline class="cls-8" points="241.98 71.96 256.02 71.96 260.38 67.65"/><polyline class="cls-8" points="323.48 99.52 323.48 94.55 360.52 94.55"/><polyline class="cls-11" points="293.61 116.14 293.61 109.45 323.48 109.45"/><line class="cls-6" x1="311.27" y1="109.45" x2="360.52" y2="109.45"/><line class="cls-8" x1="334.42" y1="118.74" x2="361.01" y2="118.74"/><line class="cls-9" x1="319.52" y1="113.77" x2="319.52" y2="123.7"/><line class="cls-9" x1="330.38" y1="118.74" x2="319.52" y2="118.74"/><line class="cls-6" x1="319.22" y1="73.42" x2="289.74" y2="73.42"/><line class="cls-6" x1="340.26" y1="77.59" x2="340.26" y2="67.64"/><line class="cls-6" x1="345.23" y1="77.59" x2="335.29" y2="77.59"/><polyline class="cls-4" points="345.23 149.21 345.23 88.26 313.2 88.26"/><polyline class="cls-9" points="257.82 149.21 267.76 149.21 280.11 135.78 269.57 125.24"/><line class="cls-9" x1="287.17" y1="141.1" x2="298.45" y2="141.1"/><line class="cls-9" x1="292.81" y1="153.41" x2="292.81" y2="141.1"/></g></g><g><rect class="cls-37" x="48.6" y="60.09" width="144.75" height="98.71"/><g><g><path class="cls-22" d="M182.92,84.72v47.78c0,3.73-3.03,6.76-6.76,6.76h-47.78c-6.02,0-9.03-7.28-4.78-11.53l47.78-47.78c4.26-4.26,11.53-1.24,11.53,4.78Z"/><line class="cls-11" x1="168.02" y1="153.06" x2="168.02" y2="128.22"/><path class="cls-28" d="M182.92,92.9v39.59c0,3.73-3.03,6.76-6.76,6.76h-34.14"/><path class="cls-33" d="M142.03,139.25h-13.64c-6.02,0-9.03-7.28-4.78-11.53l2.76-2.76"/><path class="cls-33" d="M142.03,128.22v13.11c0,3.73-3.03,6.76-6.76,6.76h-57.33c-3.73,0-6.76-3.03-6.76-6.76v-24.24"/><path class="cls-27" d="M111.03,77.24h24.24c3.73,0,6.76,3.03,6.76,6.76v4.49"/><line class="cls-9" x1="83.58" y1="87.66" x2="83.58" y2="113.32"/><path class="cls-22" d="M113.09,75.19l-47.78,47.78c-4.26,4.26-11.53,1.24-11.53-4.78v-47.78c0-3.73,3.03-6.76,6.76-6.76h47.78c6.02,0,9.03,7.28,4.78,11.53Z"/><path class="cls-26" d="M71.18,117.1v-33.1c0-3.73,3.03-6.76,6.76-6.76h33.1"/><polyline class="cls-2" points="114.33 88.49 134.19 68.62 144.13 68.62"/><g><path class="cls-28" d="M69.99,118.29l-4.68,4.68c-4.26,4.26-11.53,1.24-11.53-4.78v-47.78c0-3.73,3.03-6.76,6.76-6.76h47.78c6.02,0,9.03,7.28,4.78,11.53l-43.1,43.1"/><polyline class="cls-6" points="53.78 128.22 53.78 148.09 63.71 148.09"/><line class="cls-8" x1="142.03" y1="108.35" x2="142.03" y2="128.22"/><line class="cls-6" x1="142.03" y1="88.49" x2="142.03" y2="108.35"/><path class="cls-8" d="M173.11,78.68c4.24-2.19,9.82,.77,9.82,6.04v8.19"/><line class="cls-2" x1="93.51" y1="103.39" x2="93.51" y2="129.05"/><line class="cls-6" x1="113.38" y1="123.26" x2="103.45" y2="123.26"/><polyline class="cls-8" points="83.58 125.33 83.58 138.16 96.2 138.16"/><line class="cls-8" x1="108.42" y1="104.44" x2="108.42" y2="98.42"/><line class="cls-8" x1="172.99" y1="114.37" x2="172.99" y2="108.35"/><line class="cls-2" x1="109.87" y1="88.49" x2="118.78" y2="88.49"/><line class="cls-2" x1="113.38" y1="133.19" x2="113.38" y2="154.92"/><line class="cls-2" x1="98.48" y1="80.92" x2="98.48" y2="73.57"/><line class="cls-6" x1="63.71" y1="103.39" x2="63.71" y2="96.03"/></g><polyline class="cls-8" points="177.96 153.06 187.89 153.06 187.89 143.12"/><polyline class="cls-6" points="177.96 63.65 187.89 63.65 187.89 68.62"/><line class="cls-9" x1="168.02" y1="128.22" x2="187.89" y2="128.22"/><line class="cls-2" x1="93.51" y1="118.29" x2="103.45" y2="108.35"/></g><g><path class="cls-44" d="M150.78,117.74c-9.51,0-17.25-7.74-17.25-17.25s7.74-17.25,17.25-17.25,17.25,7.74,17.25,17.25-7.74,17.25-17.25,17.25Z"/><path class="cls-39" d="M150.77,85.61c8.22,0,14.88,6.66,14.88,14.88s-6.66,14.88-14.88,14.88-14.88-6.66-14.88-14.88,6.66-14.88,14.88-14.88m0-4.74c-10.82,0-19.62,8.8-19.62,19.62s8.8,19.62,19.62,19.62,19.62-8.8,19.62-19.62-8.8-19.62-19.62-19.62h0Z"/></g><polyline class="cls-9" points="172.99 68.62 172.99 93.45 187.89 93.45"/><line class="cls-9" x1="148.2" y1="103.07" x2="153.35" y2="97.91"/></g></g></g><g><rect class="cls-37" x="56.02" y="265.91" width="154.95" height="105.67"/><g><path class="cls-16" d="M124.06,285.69l-51.15,51.15c-4.56,4.56-12.35,1.33-12.35-5.11v-51.15c0-3.99,3.24-7.23,7.23-7.23h51.15c6.44,0,9.67,7.79,5.11,12.35Z"/><rect class="cls-14" x="93.42" y="281.7" width="75.84" height="75.84" rx="7.23" ry="7.23" transform="translate(-188.28 450.96) rotate(-90)"/><path class="cls-38" d="M131.34,292.49c-15.93,0-28.85,12.92-28.85,28.85,0,10.98,6.13,20.53,15.16,25.4l9.23-17.13c-2.94-1.59-4.94-4.7-4.94-8.27,0-5.19,4.21-9.39,9.39-9.39s9.39,4.21,9.39,9.39c0,3.42-1.84,6.41-4.57,8.05l10,16.7c8.4-5.04,14.03-14.24,14.03-24.76,0-15.93-12.92-28.85-28.85-28.85Z"/><path class="cls-10" d="M121.57,357.54l9.23-17.13"/><path class="cls-18" d="M206.42,305.78v51.15c0,3.99-3.24,7.23-7.23,7.23h-51.15c-6.44,0-9.67-7.79-5.11-12.35l51.15-51.15c4.56-4.56,12.35-1.33,12.35,5.11Z"/><path class="cls-10" d="M122.41,306.89c4.93-4.93,12.93-4.93,17.86,0"/><circle class="cls-43" cx="156.54" cy="291.29" r="3.65"/><circle class="cls-43" cx="102.49" cy="348.57" r="3.65"/></g></g><g><rect class="cls-37" x="56.02" y="393.16" width="154.95" height="105.67"/><g><g><path class="cls-16" d="M124.06,412.93l-51.15,51.15c-4.56,4.56-12.35,1.33-12.35-5.11v-51.15c0-3.99,3.24-7.23,7.23-7.23h51.15c6.44,0,9.67,7.79,5.11,12.35Z"/><rect class="cls-35" x="93.42" y="408.94" width="75.84" height="75.84" rx="7.23" ry="7.23" transform="translate(-315.52 578.2) rotate(-90)"/><path class="cls-32" d="M162.68,419.04c0,28.62-16.25,53.44-40.03,65.74"/><path class="cls-18" d="M206.42,433.02v51.15c0,3.99-3.24,7.23-7.23,7.23h-51.15c-6.44,0-9.67-7.79-5.11-12.35l51.15-51.15c4.56-4.56,12.35-1.33,12.35,5.11Z"/></g><line class="cls-36" x1="166.83" y1="411.38" x2="95.82" y2="482.39"/><path class="cls-32" d="M162.68,419.04c0,12.13-6.89,22.64-16.96,27.85"/><path class="cls-32" d="M96.89,469.77c2.26-12.03,11.4-21.63,23.17-24.58"/><path class="cls-32" d="M96.89,469.77c5.6-29.77,28.21-53.54,57.36-60.83"/><circle class="cls-38" cx="131.34" cy="446.87" r="12.63"/><circle class="cls-38" cx="166.83" cy="411.38" r="12.63"/><circle class="cls-38" cx="95.82" cy="482.39" r="12.63"/></g></g><g><rect class="cls-37" x="56.02" y="532.1" width="154.95" height="105.67"/><g><g><path class="cls-16" d="M124.06,551.88l-51.15,51.15c-4.56,4.56-12.35,1.33-12.35-5.11v-51.15c0-3.99,3.24-7.23,7.23-7.23h51.15c6.44,0,9.67,7.79,5.11,12.35Z"/><rect class="cls-24" x="93.42" y="547.88" width="75.84" height="75.84" rx="7.23" ry="7.23" transform="translate(-454.46 717.14) rotate(-90)"/><path class="cls-18" d="M206.42,571.96v51.15c0,3.99-3.24,7.23-7.23,7.23h-51.15c-6.44,0-9.67-7.79-5.11-12.35l51.15-51.15c4.56-4.56,12.35-1.33,12.35,5.11Z"/></g><g><line class="cls-13" x1="148.38" y1="598.87" x2="111.82" y2="629.82"/><line class="cls-13" x1="131.67" y1="605.31" x2="84.78" y2="596.05"/><line class="cls-13" x1="116.2" y1="596.06" x2="94.32" y2="553.84"/><line class="cls-13" x1="114.01" y1="578.17" x2="133.27" y2="534.99"/><line class="cls-13" x1="126.67" y1="565.52" x2="172.29" y2="553.68"/><line class="cls-13" x1="143.94" y1="567.28" x2="182" y2="595.85"/><line class="cls-13" x1="153.69" y1="581.96" x2="155.09" y2="629.73"/></g><line class="cls-7" x1="125.62" y1="585.77" x2="125.62" y2="574.63"/><line class="cls-7" x1="136.82" y1="584.94" x2="142.22" y2="590.34"/><line class="cls-7" x1="157.71" y1="568.25" x2="161.4" y2="564.57"/><line class="cls-7" x1="178.96" y1="561.23" x2="188.94" y2="561.23"/><line class="cls-7" x1="182.8" y1="547.88" x2="188.94" y2="541.74"/><line class="cls-7" x1="173.6" y1="541.38" x2="173.6" y2="537.68"/><line class="cls-7" x1="111.34" y1="608.9" x2="104.46" y2="615.78"/></g></g><g><rect class="cls-37" x="56.02" y="647.82" width="156.39" height="106.65"/><g><path class="cls-16" d="M124.69,667.86l-51.62,51.62c-4.6,4.6-12.46,1.34-12.46-5.16v-51.62c0-4.03,3.27-7.3,7.3-7.3h51.62c6.5,0,9.76,7.86,5.16,12.46Z"/><rect class="cls-30" x="93.77" y="663.83" width="76.54" height="76.54" rx="7.3" ry="7.3" transform="translate(-570.06 834.14) rotate(-90)"/><circle class="cls-1" cx="125.81" cy="694.48" r="5.47"/><circle class="cls-3" cx="139.1" cy="707.78" r="5.47"/><g><line class="cls-12" x1="132.45" y1="723.39" x2="132.45" y2="680.82"/><line class="cls-12" x1="153.74" y1="701.15" x2="110.34" y2="701.15"/><line class="cls-12" x1="116.55" y1="717.06" x2="147.41" y2="686.2"/></g><path class="cls-18" d="M207.81,688.13v51.62c0,4.03-3.27,7.3-7.3,7.3h-51.62c-6.5,0-9.76-7.86-5.16-12.46l51.62-51.62c4.6-4.6,12.46-1.34,12.46,5.16Z"/><circle class="cls-3" cx="132.45" cy="680.82" r="5.47"/><circle class="cls-3" cx="110.76" cy="701.54" r="5.47"/><circle class="cls-1" cx="116.99" cy="717.15" r="5.47"/><circle class="cls-1" cx="132.45" cy="723.39" r="5.47"/><circle class="cls-3" cx="153.33" cy="701.54" r="5.47"/><circle class="cls-1" cx="147.31" cy="686.29" r="5.47"/><line class="cls-5" x1="159.59" y1="673.99" x2="167.69" y2="665.89"/><line class="cls-5" x1="146.04" y1="675.34" x2="151.45" y2="669.94"/><line class="cls-5" x1="157.62" y1="687.27" x2="164.12" y2="680.78"/><line class="cls-5" x1="95.64" y1="737.94" x2="104.72" y2="728.86"/><line class="cls-5" x1="114.06" y1="732.78" x2="118.38" y2="728.46"/><line class="cls-5" x1="99.68" y1="719.59" x2="106.02" y2="713.25"/></g></g><text class="cls-40" transform="translate(71.18 205.83)"><tspan x="0" y="0">Design</tspan></text><text class="cls-40" transform="translate(248.53 338.97)"><tspan x="0" y="0">Open source</tspan></text><text class="cls-40" transform="translate(248.53 466.53)"><tspan x="0" y="0">Integration</tspan></text><text class="cls-40" transform="translate(248.53 600.68)"><tspan x="0" y="0">Outreach</tspan></text><text class="cls-40" transform="translate(248.53 721.64)"><tspan x="0" y="0">Education</tspan></text><text class="cls-40" transform="translate(240.18 205.83)"><tspan x="0" y="0">Develop</tspan></text><text class="cls-40" transform="translate(425.18 205.83)"><tspan x="0" y="0">Deliver</tspan></text><g><g><polygon class="cls-42" points="477.97 763.86 483.1 763.86 484.09 764.85 484.09 777.29 487.66 777.29 487.66 763.79 484.8 760.87 478 760.87 475.86 763.11 475.86 760.87 472.5 760.87 472.5 777.29 476.06 777.29 476.06 765.8 477.97 763.86"/><path class="cls-42" d="M498.43,764.64l.99-.98h6.32l.95,.98v2.89h-8.26v-2.89Zm10.37,9.86h-9.38l-.99-.95v-3.26h11.87v-6.49l-2.86-2.92h-9.72l-2.85,2.92v10.57l2.85,2.92h11.08v-2.79Z"/><polygon class="cls-42" points="526.54 774.3 521.37 774.3 520.42 773.31 520.42 760.87 516.85 760.87 516.85 774.36 519.71 777.29 526.47 777.29 528.65 775.08 528.65 777.29 532.01 777.29 532.01 760.87 528.44 760.87 528.44 772.39 526.54 774.3"/><polygon class="cls-42" points="549.69 760.87 545.57 760.87 543.19 763.31 543.19 760.87 539.83 760.87 539.83 777.29 543.4 777.29 543.4 766.17 545.3 764.27 549.69 764.27 549.69 760.87"/><path class="cls-42" d="M558.97,763.86h6.36l.95,.99v8.46l-.95,.99h-6.36l-.95-.99v-8.46l.95-.99Zm-4.55-.07v10.57l2.85,2.92h9.76l2.85-2.92v-10.57l-2.85-2.92h-9.76l-2.85,2.92Z"/><path class="cls-42" d="M478.76,798.25l-1.02-1.33,1.83-8.67,1.6-1.33h5.68l1.69,2.21-1.46,6.93-2.61,2.17h-5.71Zm13.53-13.63h-2.62l-.51,2.38-1.8-2.38h-7l-3.37,2.79-2.17,10.33,2.17,2.82h7l2.62-2.21-1.23,5.68-1.56,1.33h-9.32l-.48,2.34h10.6l3.37-2.82,4.28-20.26Z"/><path class="cls-42" d="M501.22,788.09l1.6-1.33h6.83l.99,1.33-.64,3.13h-9.45l.68-3.13Zm8.57,10.3h-9.42l-1.05-1.29,.78-3.74h12.2l1.26-5.95-2.14-2.79h-9.44l-3.37,2.79-2.17,10.33,2.17,2.82h10.71l.48-2.17Z"/><path class="cls-42" d="M521.14,798.39l-1.02-1.29,.61-2.96,1.56-1.33h8.09l-.72,3.4-2.65,2.18h-5.88Zm7.79,2.17h2.61l2.75-13.16-2.14-2.79h-10.64l-.48,2.14h9.35l1.02,1.33-.58,2.58h-9.25l-3.33,2.82-.91,4.25,2.17,2.82h7.07l2.82-2.34-.47,2.34Z"/><polygon class="cls-42" points="552.1 784.62 548.05 784.62 545.03 787.14 545.57 784.62 542.96 784.62 539.59 800.57 542.35 800.57 544.69 789.42 547.34 787.24 551.56 787.24 552.1 784.62"/><polygon class="cls-42" points="553.29 800.57 563.55 800.57 566.89 797.75 567.67 794.01 565.53 791.18 559.34 791.18 558.32 789.86 558.69 788.09 560.29 786.77 567.91 786.77 568.35 784.62 559.41 784.62 556.04 787.41 555.36 790.74 557.5 793.53 563.69 793.53 564.71 794.85 564.24 797.1 562.67 798.39 553.73 798.39 553.29 800.57"/></g><g><g><circle class="cls-15" cx="496.15" cy="690.71" r="5.9"/><circle class="cls-15" cx="546.31" cy="690.65" r="5.9"/><circle class="cls-15" cx="537.96" cy="690.65" r="5.9"/><circle class="cls-15" cx="521.22" cy="715.8" r="5.9"/><circle class="cls-15" cx="546.31" cy="699" r="5.9"/><circle class="cls-15" cx="496.12" cy="740.83" r="5.9"/><circle class="cls-15" cx="504.47" cy="740.83" r="5.9"/><circle class="cls-15" cx="546.3" cy="740.93" r="5.9"/><circle class="cls-15" cx="496.12" cy="732.48" r="5.9"/><rect class="cls-20" x="490.22" y="684.75" width="61.99" height="61.99" rx="5.91" ry="5.91" transform="translate(-194.52 1236.96) rotate(-90)"/><path class="cls-25" d="M542.12,694.84l-41.8,41.8c-3.72,3.72-10.09,1.09-10.09-4.18v-41.8c0-3.27,2.65-5.91,5.91-5.91h41.8c5.27,0,7.9,6.37,4.18,10.09Z"/><path class="cls-19" d="M552.21,699.02v41.8c0,3.27-2.65,5.91-5.91,5.91h-41.8c-5.27,0-7.9-6.37-4.18-10.09l41.8-41.8c3.72-3.72,10.09-1.09,10.09,4.18Z"/></g><g><path class="cls-39" d="M521.22,733.33c-9.66,0-17.53-7.86-17.53-17.53s7.86-17.53,17.53-17.53,17.53,7.86,17.53,17.53-7.86,17.53-17.53,17.53Z"/><path class="cls-41" d="M521.22,700.35c8.53,0,15.45,6.92,15.45,15.45s-6.92,15.45-15.45,15.45-15.45-6.92-15.45-15.45,6.92-15.45,15.45-15.45m0-4.15c-10.81,0-19.6,8.79-19.6,19.6s8.79,19.6,19.6,19.6,19.6-8.79,19.6-19.6-8.79-19.6-19.6-19.6h0Z"/></g></g></g></svg>