<?xml version="1.0" encoding="UTF-8"?><svg id="Layer_1" xmlns="http://www.w3.org/2000/svg" viewBox="0 0 233.14 158.99"><defs><style>.cls-1,.cls-2,.cls-3{stroke-width:7.64px;}.cls-1,.cls-2,.cls-4{fill:#fff;}.cls-1,.cls-3{stroke-linejoin:round;}.cls-1,.cls-3,.cls-4{stroke:#1d1d1b;}.cls-2,.cls-5{stroke:#27a4f2;}.cls-2,.cls-5,.cls-4{stroke-miterlimit:10;}.cls-5{stroke-width:4.72px;}.cls-5,.cls-3,.cls-6{fill:none;}.cls-4{stroke-width:4.71px;}</style></defs><rect class="cls-6" width="233.14" height="158.99"/><g><g><path class="cls-4" d="M102.38,29.76L25.42,106.71c-6.86,6.86-18.58,2-18.58-7.7V22.06c0-6.01,4.87-10.88,10.88-10.88H94.68c9.7,0,14.55,11.72,7.7,18.58Z"/><rect class="cls-2" x="56.28" y="23.74" width="114.11" height="114.11" rx="10.88" ry="10.88" transform="translate(32.54 194.13) rotate(-90)"/><path class="cls-5" d="M160.49,38.94c0,43.06-24.45,80.4-60.22,98.91"/><path class="cls-4" d="M226.29,59.97v76.95c0,6.01-4.87,10.88-10.88,10.88h-76.95c-9.7,0-14.55-11.72-7.7-18.58L207.71,52.28c6.86-6.86,18.58-2,18.58,7.7Z"/></g><line class="cls-3" x1="166.72" y1="27.43" x2="59.88" y2="134.26"/><path class="cls-5" d="M160.49,38.94c0,18.24-10.36,34.07-25.52,41.91"/><path class="cls-5" d="M61.5,115.27c3.4-18.1,17.15-32.55,34.87-36.98"/><path class="cls-5" d="M61.5,115.27c8.43-44.8,42.45-80.56,86.3-91.52"/><circle class="cls-1" cx="113.33" cy="80.81" r="19"/><circle class="cls-1" cx="166.72" cy="27.43" r="19"/><circle class="cls-1" cx="59.88" cy="134.26" r="19"/></g></svg>