<?xml version="1.0" encoding="UTF-8"?><svg id="Layer_1" xmlns="http://www.w3.org/2000/svg" viewBox="0 0 233.14 158.99"><defs><style>.cls-1{stroke-linejoin:round;}.cls-1,.cls-2{stroke-width:7.64px;}.cls-1,.cls-2,.cls-3{fill:#fff;}.cls-1,.cls-3{stroke:#1d1d1b;}.cls-4{fill:#5207f2;}.cls-2,.cls-5{stroke:#5207f2;}.cls-2,.cls-5,.cls-3{stroke-miterlimit:10;}.cls-6,.cls-5{fill:none;}.cls-5{stroke-linecap:round;stroke-width:4.72px;}.cls-3{stroke-width:4.71px;}</style></defs><rect class="cls-6" width="233.14" height="158.99"/><g><path class="cls-3" d="M102.38,29.76L25.42,106.71c-6.86,6.86-18.58,2-18.58-7.7V22.06c0-6.01,4.87-10.88,10.88-10.88H94.68c9.7,0,14.55,11.72,7.7,18.58Z"/><rect class="cls-2" x="56.28" y="23.74" width="114.11" height="114.11" rx="10.88" ry="10.88" transform="translate(32.54 194.13) rotate(-90)"/><path class="cls-1" d="M113.33,39.98c-23.98,0-43.41,19.44-43.41,43.41,0,16.52,9.23,30.88,22.81,38.22l13.89-25.78c-4.42-2.39-7.43-7.06-7.43-12.44,0-7.81,6.33-14.13,14.13-14.13s14.13,6.33,14.13,14.13c0,5.15-2.76,9.64-6.88,12.12l15.05,25.13c12.65-7.59,21.11-21.43,21.11-37.25,0-23.98-19.44-43.41-43.41-43.41Z"/><path class="cls-5" d="M98.64,137.85l13.89-25.78"/><path class="cls-3" d="M226.29,59.97v76.95c0,6.01-4.87,10.88-10.88,10.88h-76.95c-9.7,0-14.55-11.72-7.7-18.58L207.71,52.28c6.86-6.86,18.58-2,18.58,7.7Z"/><path class="cls-5" d="M99.9,61.66c7.42-7.42,19.45-7.42,26.87,0"/><circle class="cls-4" cx="151.25" cy="38.18" r="5.49"/><circle class="cls-4" cx="69.92" cy="124.36" r="5.49"/></g></svg>