<?xml version="1.0" encoding="UTF-8"?><svg id="Layer_1" xmlns="http://www.w3.org/2000/svg" viewBox="0 0 233.14 158.99"><defs><style>.cls-1{stroke-width:4.72px;}.cls-1,.cls-2{stroke-linecap:round;}.cls-1,.cls-2,.cls-3{fill:none;}.cls-1,.cls-4{stroke:#f96e05;}.cls-1,.cls-4,.cls-5{stroke-miterlimit:10;}.cls-2{stroke-linejoin:round;}.cls-2,.cls-4{stroke-width:7.64px;}.cls-2,.cls-5{stroke:#1d1d1b;}.cls-4,.cls-5{fill:#fff;}.cls-5{stroke-width:4.71px;}</style></defs><rect class="cls-3" width="233.14" height="158.99"/><g><g><path class="cls-5" d="M102.38,29.76L25.42,106.71c-6.86,6.86-18.58,2-18.58-7.7V22.06c0-6.01,4.87-10.88,10.88-10.88H94.68c9.7,0,14.55,11.72,7.7,18.58Z"/><rect class="cls-4" x="56.28" y="23.74" width="114.11" height="114.11" rx="10.88" ry="10.88" transform="translate(32.54 194.13) rotate(-90)"/><path class="cls-5" d="M226.29,59.97v76.95c0,6.01-4.87,10.88-10.88,10.88h-76.95c-9.7,0-14.55-11.72-7.7-18.58L207.71,52.28c6.86-6.86,18.58-2,18.58,7.7Z"/></g><g><line class="cls-2" x1="138.97" y1="100.46" x2="83.97" y2="147.03"/><line class="cls-2" x1="113.83" y1="110.15" x2="43.27" y2="96.21"/><line class="cls-2" x1="90.56" y1="96.23" x2="57.63" y2="32.71"/><line class="cls-2" x1="87.26" y1="69.32" x2="116.23" y2="4.34"/><line class="cls-2" x1="106.3" y1="50.28" x2="174.94" y2="32.47"/><line class="cls-2" x1="132.29" y1="52.93" x2="189.56" y2="95.91"/><line class="cls-2" x1="146.96" y1="75.01" x2="149.07" y2="146.9"/></g><line class="cls-1" x1="104.73" y1="80.76" x2="104.73" y2="63.99"/><line class="cls-1" x1="121.57" y1="79.49" x2="129.7" y2="87.63"/><line class="cls-1" x1="153.01" y1="54.39" x2="158.56" y2="48.85"/><line class="cls-1" x1="184.98" y1="43.83" x2="199.99" y2="43.83"/><line class="cls-1" x1="190.75" y1="23.74" x2="199.99" y2="14.51"/><line class="cls-1" x1="176.92" y1="13.96" x2="176.92" y2="8.4"/><line class="cls-1" x1="83.23" y1="115.55" x2="72.88" y2="125.9"/></g></svg>