<svg xmlns="http://www.w3.org/2000/svg" width="956.716" height="956.71" viewBox="0 0 956.716 956.71">
  <g id="Group_6" data-name="Group 6" transform="translate(-2090.987 -3414.512)">
    <g id="Group_1" data-name="Group 1" transform="translate(2090.987 3414.512)">
      <path id="Path_1" data-name="Path 1" d="M2941.068,4371.222H2197.615a106.752,106.752,0,0,1-106.628-106.635V3521.141a106.75,106.75,0,0,1,106.628-106.629h743.453A106.755,106.755,0,0,1,3047.7,3521.141v743.446A106.758,106.758,0,0,1,2941.068,4371.222Zm-743.453-918.7a68.7,68.7,0,0,0-68.621,68.623v743.446a68.7,68.7,0,0,0,68.621,68.627h743.453a68.7,68.7,0,0,0,68.628-68.627V3521.141a68.7,68.7,0,0,0-68.628-68.623Zm371.75,689.311a248.118,248.118,0,0,1-248.014-248.016c0-136.724,111.265-247.959,248.014-247.959a248.035,248.035,0,0,1,248.022,247.959C2817.387,4030.568,2706.127,4141.829,2569.365,4141.829Zm0-457.971c-115.8,0-210.009,94.19-210.009,209.955a210.1,210.1,0,0,0,210.009,210.01c115.8,0,210.016-94.211,210.016-210.01a210.034,210.034,0,0,0-210.016-209.955Z" transform="translate(-2090.987 -3414.512)" fill="#fff"/>
    </g>
    <g id="Group_2" data-name="Group 2" transform="translate(2090.987 3414.512)">
      <path id="Path_2" data-name="Path 2" d="M2198.294,4247.571a108.314,108.314,0,0,1-41.5-8.395c-40.592-16.813-65.809-54.552-65.809-98.482V3521.141a106.75,106.75,0,0,1,106.628-106.629h619.553c43.957,0,81.715,25.229,98.521,65.848,16.81,40.6,7.945,85.115-23.138,116.167v.006h0l-161.733,161.73-13.437-13.367a208.538,208.538,0,0,0-148.016-61.038c-115.8,0-210.009,94.19-210.009,209.955a208.422,208.422,0,0,0,61.077,148.012l13.383,13.432L2273,4216.081C2252.348,4236.734,2225.743,4247.566,2198.294,4247.571Zm-.679-795.053a68.7,68.7,0,0,0-68.621,68.623v619.553c0,33.789,21.875,54.888,42.348,63.367s50.89,9.047,74.791-14.854l134.495-134.5a246.011,246.011,0,0,1-59.277-160.891c0-136.724,111.265-247.959,248.014-247.959a246.14,246.14,0,0,1,160.886,59.234l135.436-135.441c23.9-23.879,23.362-54.271,14.886-74.746-8.481-20.491-29.59-42.382-63.4-42.382Z" transform="translate(-2090.987 -3414.512)" fill="#fff"/>
    </g>
    <g id="Group_3" data-name="Group 3" transform="translate(2214.651 3538.179)">
      <path id="Path_3" data-name="Path 3" d="M2840.182,4270.332H2220.634c-43.92,0-81.649-25.209-98.469-65.789-16.832-40.6-7.986-85.132,23.075-116.223l160.9-160.9,13.432,13.54a208.319,208.319,0,0,0,148.908,61.977c115.8,0,210.015-94.21,210.015-210.01a208.477,208.477,0,0,0-61.987-148.9l-13.526-13.446L2764.8,3468.762c31.1-31.057,75.619-39.9,116.214-23.075s65.805,54.571,65.805,98.516V4163.7A106.756,106.756,0,0,1,2840.182,4270.332ZM2306.544,3980.76l-134.428,134.431c-23.883,23.913-23.329,54.323-14.839,74.8s29.579,42.332,63.357,42.332h619.548a68.7,68.7,0,0,0,68.627-68.627V3544.2c0-33.809-21.88-54.917-42.355-63.405s-50.874-9.043-74.788,14.848L2656.309,3631a245.969,245.969,0,0,1,60.19,161.925c0,136.755-111.259,248.016-248.02,248.016A245.815,245.815,0,0,1,2306.544,3980.76Z" transform="translate(-2113.763 -3437.29)" fill="#fff"/>
    </g>
    <g id="Group_4" data-name="Group 4" transform="translate(2309.623 3634.071)">
      <path id="Path_4" data-name="Path 4" d="M2574.084,3530.638A258.67,258.67,0,0,0,2391,3454.952c-143.226,0-259.747,116.515-259.747,259.742A260.086,260.086,0,0,0,2391,3974.438c143.223,0,259.738-116.516,259.738-259.744A258.776,258.776,0,0,0,2574.084,3530.638ZM2391,3943.708a229.115,229.115,0,0,1-229.012-229.014c0-126.45,102.509-228.957,229.012-228.957a229.027,229.027,0,0,1,229.015,228.957C2620.018,3841.145,2517.455,3943.708,2391,3943.708Z" transform="translate(-2131.256 -3454.952)" fill="#fff"/>
    </g>
    <g id="Group_5" data-name="Group 5" transform="translate(2278.898 3603.341)">
      <path id="Path_5" data-name="Path 5" d="M2620.866,3533.992a289.448,289.448,0,0,0-204.8-84.7c-160.168,0-290.474,130.306-290.474,290.474a290.941,290.941,0,0,0,290.474,290.527c160.168,0,290.473-130.358,290.473-290.527A289.477,289.477,0,0,0,2620.866,3533.992Zm-204.8,434.783a229.106,229.106,0,0,1-229.013-229.01c0-126.451,102.51-228.958,229.013-228.958a229.031,229.031,0,0,1,229.013,228.958C2645.084,3866.216,2542.52,3968.775,2416.071,3968.775Z" transform="translate(-2125.597 -3449.291)" fill="#fff"/>
    </g>
  </g>
</svg>
